<svg width="285" height="90" viewBox="0 0 285 90" fill="none" xmlns="http://www.w3.org/2000/svg">
<g clip-path="url(#clip0_206_7104)">
<path d="M110.169 12.4512V14.5898L100.044 29.0404H110.169V31.3452H96.9629V29.2066L107.034 14.756H97.3231V12.4512H110.169Z" fill="#2F3061"/>
<path d="M124.831 25.9742H114.379C114.739 28.2522 116.384 29.4314 118.589 29.4314C120.159 29.4314 121.589 28.7185 122.331 27.4321L124.396 28.2576C123.294 30.4766 120.987 31.688 118.508 31.688C114.852 31.688 111.905 28.9758 111.905 24.9129C111.905 20.85 114.846 18.2236 118.508 18.2236C122.17 18.2236 124.891 20.8554 124.891 24.9129C124.891 25.2721 124.864 25.6258 124.837 25.9849L124.831 25.9742ZM122.492 23.916C122.191 21.7237 120.621 20.4588 118.503 20.4588C116.384 20.4588 114.787 21.6112 114.406 23.916H122.492Z" fill="#2F3061"/>
<path d="M139.72 23.9427V31.3449H137.327V24.0767C137.327 21.9381 136.004 20.5659 134.219 20.5659C132.434 20.5659 130.283 21.6379 130.283 24.4037V31.3395H127.891V18.5345H130.283V20.4802C131.052 18.915 133.144 18.2021 134.547 18.2021C137.741 18.2021 139.747 20.3408 139.72 23.932V23.9427Z" fill="#2F3061"/>
<path d="M149.431 18.5398V20.5981H146.651V31.3503H144.258V20.5981H141.946V18.5398H144.258V13.7158H146.651V18.5398H149.431Z" fill="#2F3061"/>
<path d="M160.078 18.706L159.691 20.9572C159.002 20.6303 158.314 20.5177 157.82 20.5177C155.26 20.5177 154.244 23.2888 154.244 26.6603V31.3503H151.824V18.5452H154.244V21.4503C154.905 19.1991 156.142 18.2129 157.846 18.2129C158.755 18.2129 159.691 18.4595 160.072 18.706H160.078Z" fill="#2F3061"/>
<path d="M171.466 18.54H173.859V31.3451H171.466V29.3458C170.697 30.9646 168.632 31.6774 167.202 31.6774C163.981 31.6774 162.003 29.5388 162.03 25.9476V18.5454H164.422V25.894C164.422 28.0594 165.718 29.4316 167.503 29.4316C169.288 29.4316 171.439 28.3596 171.466 25.5938V18.5454V18.54Z" fill="#2F3061"/>
<path d="M197.963 23.9432V31.3454H195.571V24.0772C195.571 21.9386 194.388 20.5128 192.517 20.5128C190.231 20.486 189.048 22.0779 189.048 24.9295V31.3454H186.656V24.0772C186.656 21.9118 185.473 20.5128 183.768 20.5128C181.951 20.5128 180.139 21.692 180.139 24.4095V31.3454H177.746V18.5403H180.139V20.5128C180.773 19.1138 182.451 18.208 184.263 18.208C186.075 18.208 187.758 19.1942 188.5 20.9523C189.683 18.6475 191.694 18.208 192.984 18.208C196.205 18.208 197.963 20.3467 197.963 23.9379V23.9432Z" fill="#2F3061"/>
<path d="M214.665 13.8235C212.379 13.8235 211.777 15.2224 211.804 16.8948V18.5403H214.804V20.5985H211.804V31.3507H209.411V20.5985H206.933V18.5403H209.411V17.2217C209.411 13.8771 210.815 11.5723 214.251 11.5723H215.627V13.8235H214.665Z" fill="#2F3061"/>
<path d="M226.413 18.5397H228.806V31.3448H226.413V29.3455C225.644 30.9642 223.58 31.6771 222.149 31.6771C218.929 31.6771 216.95 29.5385 216.977 25.9473V18.5451H219.37V25.8937C219.37 28.0591 220.665 29.4313 222.451 29.4313C224.236 29.4313 226.386 28.3593 226.413 25.5935V18.5451V18.5397ZM218.708 14.7556C218.708 13.8497 219.477 13.1904 220.386 13.1904C221.295 13.1904 222.01 13.8497 222.01 14.7556C222.01 15.6614 221.268 16.3475 220.386 16.3475C219.504 16.3475 218.708 15.6614 218.708 14.7556ZM223.908 14.7556C223.908 13.8497 224.65 13.1904 225.558 13.1904C226.467 13.1904 227.236 13.8497 227.236 14.7556C227.236 15.6614 226.494 16.3475 225.558 16.3475C224.623 16.3475 223.908 15.6614 223.908 14.7556Z" fill="#2F3061"/>
<path d="M240.936 18.706L240.549 20.9572C239.861 20.6303 239.173 20.5177 238.678 20.5177C236.119 20.5177 235.102 23.2888 235.102 26.6603V31.3503H232.683V18.5452H235.102V21.4503C235.764 19.1991 237 18.2129 238.705 18.2129C239.614 18.2129 240.549 18.4595 240.931 18.706H240.936Z" fill="#2F3061"/>
<path d="M110.169 37.6436V39.7822L100.044 54.2328H110.169V56.5376H96.9629V54.399L107.034 39.9484H97.3231V37.6436H110.169Z" fill="#2F3061"/>
<path d="M122.88 43.7317H125.272V56.5368H122.88V54.2588C122.025 55.7971 120.24 56.8638 118.175 56.8638C114.82 56.8638 111.873 54.039 111.873 50.1155C111.873 46.192 114.653 43.3994 118.282 43.3994C120.207 43.3994 122.025 44.2195 122.874 45.731V43.7317H122.88ZM122.88 50.1209C122.88 47.4891 120.654 45.6506 118.508 45.6506C116.169 45.6506 114.298 47.7089 114.298 50.1209C114.298 52.5329 116.169 54.6179 118.535 54.6179C120.901 54.6179 122.88 52.7258 122.88 50.1209Z" fill="#2F3061"/>
<path d="M141.011 49.1351V56.5372H138.618V49.2691C138.618 47.1304 137.295 45.7583 135.51 45.7583C133.725 45.7583 131.574 46.8303 131.574 49.596V56.5319H129.182V36.7588H131.574V45.6725C132.343 44.1074 134.435 43.3945 135.838 43.3945C139.032 43.3945 141.038 45.5331 141.011 49.1243V49.1351Z" fill="#2F3061"/>
<path d="M156.556 49.1351V56.5373H154.163V49.2691C154.163 47.1305 152.84 45.7583 151.055 45.7583C149.27 45.7583 147.119 46.8303 147.119 49.5961V56.5319H144.727V43.7269H147.119V45.6725C147.888 44.1074 149.98 43.3945 151.383 43.3945C154.577 43.3945 156.583 45.5332 156.556 49.1244V49.1351Z" fill="#2F3061"/>
<path d="M180.489 49.1346V56.5368H178.096V49.2686C178.096 47.13 176.913 45.7042 175.042 45.7042C172.757 45.6774 171.574 47.2693 171.574 50.1209V56.5368H169.181V49.2686C169.181 47.1032 167.998 45.7042 166.294 45.7042C164.476 45.7042 162.664 46.8834 162.664 49.601V56.5368H160.271V43.7317H162.664V45.7042C163.299 44.3053 164.976 43.3994 166.788 43.3994C168.6 43.3994 170.283 44.3857 171.025 46.1437C172.208 43.8389 174.219 43.3994 175.51 43.3994C178.731 43.3994 180.489 45.5381 180.489 49.1293V49.1346Z" fill="#2F3061"/>
<path d="M196.286 51.1666H185.833C186.193 53.4446 187.838 54.6238 190.043 54.6238C191.613 54.6238 193.043 53.9109 193.785 52.6245L195.85 53.45C194.748 55.669 192.441 56.8804 189.962 56.8804C186.306 56.8804 183.359 54.1682 183.359 50.1053C183.359 46.0424 186.301 43.416 189.962 43.416C193.624 43.416 196.345 46.0478 196.345 50.1053C196.345 50.4644 196.318 50.8182 196.291 51.1773L196.286 51.1666ZM193.947 49.1084C193.645 46.9161 192.075 45.6511 189.957 45.6511C187.838 45.6511 186.241 46.8035 185.86 49.1084H193.947Z" fill="#2F3061"/>
<path d="M209.491 36.7695H211.884V56.5426H209.491V54.5433C208.637 55.9959 206.765 56.8749 204.926 56.8749C201.405 56.8749 198.49 54.1628 198.49 50.1267C198.49 46.0906 201.378 43.4106 204.9 43.4106C206.825 43.4106 208.642 44.2307 209.491 45.7422V36.7749V36.7695ZM209.491 50.0945C209.491 47.3234 207.233 45.6511 205.12 45.6511C202.781 45.6511 200.91 47.5164 200.91 50.0945C200.91 52.6727 202.781 54.6184 205.12 54.6184C207.459 54.6184 209.491 52.8335 209.491 50.0945Z" fill="#2F3061"/>
<path d="M215.299 39.0158C215.299 38.1099 216.068 37.4238 216.976 37.4238C217.885 37.4238 218.681 38.1099 218.681 39.0158C218.681 39.9216 217.912 40.6077 216.976 40.6077C216.041 40.6077 215.299 39.9216 215.299 39.0158ZM215.793 56.5376V43.7326H218.186V56.5376H215.793Z" fill="#2F3061"/>
<path d="M232.354 43.7324V45.7049L224.428 54.2863H232.354V56.5375H221.073V54.565L228.859 45.9836H221.487V43.7324H232.354Z" fill="#2F3061"/>
<path d="M234.94 39.0158C234.94 38.1099 235.709 37.4238 236.618 37.4238C237.527 37.4238 238.323 38.1099 238.323 39.0158C238.323 39.9216 237.554 40.6077 236.618 40.6077C235.682 40.6077 234.94 39.9216 234.94 39.0158ZM235.435 56.5376V43.7326H237.828V56.5376H235.435Z" fill="#2F3061"/>
<path d="M253.539 49.1351V56.5373H251.147V49.2691C251.147 47.1305 249.824 45.7583 248.039 45.7583C246.253 45.7583 244.103 46.8303 244.103 49.5961V56.5319H241.71V43.7269H244.103V45.6725C244.872 44.1074 246.963 43.3945 248.367 43.3945C251.561 43.3945 253.566 45.5332 253.539 49.1244V49.1351Z" fill="#2F3061"/>
<path d="M101.474 69.959C101.996 69.959 102.458 70.0555 102.856 70.2538C103.254 70.4521 103.587 70.7255 103.851 71.0739C104.114 71.4223 104.313 71.8243 104.448 72.2799C104.582 72.7355 104.647 73.2125 104.647 73.711C104.647 74.3971 104.528 75.0242 104.292 75.5924C104.055 76.1605 103.706 76.6161 103.238 76.9538C102.77 77.2915 102.184 77.463 101.474 77.463H98.7856C98.662 77.463 98.5598 77.4201 98.4791 77.3344C98.3985 77.2486 98.3555 77.1468 98.3555 77.0235V70.3878C98.3555 70.2645 98.3985 70.1627 98.4791 70.0823C98.5598 70.0019 98.662 69.959 98.7856 69.959H101.474ZM101.367 76.6268C101.92 76.6268 102.367 76.4928 102.716 76.2302C103.066 75.9676 103.318 75.6138 103.48 75.1689C103.641 74.724 103.722 74.2416 103.722 73.711C103.722 73.3251 103.679 72.9552 103.587 72.6015C103.496 72.2477 103.356 71.9368 103.168 71.6635C102.98 71.3901 102.732 71.1757 102.437 71.0203C102.141 70.8648 101.781 70.7844 101.367 70.7844H99.162L99.248 70.6987V76.734L99.1835 76.6268H101.367Z" fill="#2F3061"/>
<path d="M108.507 77.4629C108.384 77.4629 108.281 77.42 108.201 77.3342C108.12 77.2485 108.077 77.1466 108.077 77.0233V72.3494C108.077 72.2261 108.12 72.1243 108.201 72.0439C108.281 71.9635 108.384 71.9206 108.507 71.9206C108.636 71.9206 108.739 71.9635 108.819 72.0439C108.9 72.1243 108.937 72.2261 108.937 72.3494V73.7645L108.808 73.5393C108.851 73.3196 108.927 73.0998 109.04 72.8908C109.153 72.6817 109.292 72.4888 109.464 72.3226C109.636 72.1564 109.835 72.0225 110.056 71.926C110.276 71.8295 110.524 71.7812 110.787 71.7812C110.943 71.7812 111.088 71.8188 111.223 71.8938C111.357 71.9689 111.422 72.0761 111.422 72.2101C111.422 72.3601 111.384 72.4727 111.303 72.5424C111.223 72.6121 111.137 72.6496 111.034 72.6496C110.943 72.6496 110.852 72.6281 110.766 72.5906C110.68 72.5531 110.572 72.5317 110.443 72.5317C110.266 72.5317 110.088 72.5799 109.911 72.6764C109.733 72.7729 109.572 72.9122 109.427 73.0891C109.282 73.266 109.163 73.4697 109.072 73.6948C108.98 73.9199 108.937 74.1611 108.937 74.4184V77.0233C108.937 77.1466 108.894 77.2485 108.814 77.3342C108.733 77.42 108.631 77.4629 108.507 77.4629Z" fill="#2F3061"/>
<path d="M113.616 77.4516C113.465 77.4516 113.347 77.4088 113.266 77.323C113.186 77.2372 113.143 77.1193 113.143 76.9692V76.7548C113.143 76.5994 113.186 76.4761 113.266 76.3904C113.347 76.3046 113.465 76.2617 113.616 76.2617H113.702C113.858 76.2617 113.976 76.3046 114.057 76.3904C114.137 76.4761 114.175 76.5994 114.175 76.7548V76.9692C114.175 77.1193 114.137 77.2372 114.057 77.323C113.976 77.4088 113.858 77.4516 113.702 77.4516H113.616Z" fill="#2F3061"/>
<path d="M123.401 77.463C123.266 77.463 123.159 77.4201 123.078 77.3343C122.998 77.2486 122.96 77.1467 122.96 77.0235V70.3985C122.96 70.2698 123.003 70.1626 123.089 70.0822C123.175 70.0018 123.283 69.959 123.412 69.959C123.546 69.959 123.654 70.0018 123.734 70.0822C123.815 70.1626 123.853 70.2698 123.853 70.3985V77.0235C123.853 77.1467 123.81 77.2486 123.729 77.3343C123.648 77.4201 123.535 77.463 123.401 77.463ZM128.24 69.9482C128.353 69.9482 128.45 69.9965 128.525 70.0876C128.6 70.1787 128.638 70.2752 128.638 70.377C128.638 70.4789 128.595 70.57 128.509 70.6558L123.756 75.1367L123.68 74.1398L127.896 70.109C128.004 70.0018 128.116 69.9482 128.24 69.9482ZM128.272 77.4844C128.143 77.4844 128.036 77.4308 127.95 77.3236L125.089 73.6895L125.745 73.0249L128.66 76.7447C128.724 76.8359 128.756 76.9323 128.756 77.0342C128.756 77.1789 128.703 77.2861 128.6 77.3665C128.498 77.4469 128.385 77.4844 128.272 77.4844Z" fill="#2F3061"/>
<path d="M137.381 74.6758C137.381 75.2333 137.257 75.7317 137.015 76.1659C136.773 76.6001 136.44 76.9431 136.021 77.195C135.601 77.447 135.128 77.5702 134.596 77.5702C134.063 77.5702 133.601 77.447 133.182 77.195C132.762 76.9431 132.429 76.6001 132.182 76.1659C131.934 75.7317 131.811 75.2333 131.811 74.6758C131.811 74.1184 131.934 73.6199 132.182 73.1857C132.429 72.7516 132.762 72.4085 133.182 72.1566C133.601 71.9047 134.074 71.7814 134.596 71.7814C135.117 71.7814 135.601 71.9047 136.021 72.1566C136.44 72.4085 136.773 72.7516 137.015 73.1857C137.257 73.6199 137.381 74.1184 137.381 74.6758ZM136.521 74.6758C136.521 74.2631 136.435 73.8986 136.268 73.5824C136.101 73.2661 135.87 73.0196 135.58 72.8427C135.289 72.6658 134.961 72.5747 134.596 72.5747C134.23 72.5747 133.913 72.6658 133.617 72.8427C133.321 73.0196 133.09 73.2661 132.924 73.5824C132.757 73.8986 132.671 74.2631 132.671 74.6758C132.671 75.0885 132.757 75.4423 132.924 75.7585C133.09 76.0748 133.321 76.3213 133.617 76.5036C133.913 76.6858 134.236 76.777 134.596 76.777C134.956 76.777 135.289 76.6858 135.58 76.5036C135.87 76.3213 136.101 76.0748 136.268 75.7585C136.435 75.4423 136.521 75.0832 136.521 74.6758ZM133.553 71.031C133.386 71.031 133.262 70.9935 133.176 70.9131C133.09 70.8327 133.047 70.7201 133.047 70.5701V70.4307C133.047 70.2752 133.09 70.1573 133.182 70.0823C133.273 70.0073 133.397 69.9697 133.563 69.9697C133.73 69.9697 133.865 70.0073 133.951 70.0769C134.037 70.1466 134.08 70.2645 134.08 70.4307V70.5701C134.08 70.7362 134.037 70.8541 133.951 70.9238C133.865 70.9935 133.73 71.031 133.553 71.031ZM135.499 71.031C135.332 71.031 135.209 70.9935 135.123 70.9131C135.037 70.8327 134.994 70.7201 134.994 70.5701V70.4307C134.994 70.2645 135.042 70.1466 135.134 70.0769C135.225 70.0073 135.354 69.9697 135.521 69.9697C135.687 69.9697 135.811 70.0073 135.897 70.0823C135.983 70.1573 136.026 70.2752 136.026 70.4307V70.5701C136.026 70.7362 135.983 70.8541 135.897 70.9238C135.811 70.9935 135.677 71.031 135.499 71.031Z" fill="#2F3061"/>
<path d="M143.468 71.8351C143.941 71.8351 144.317 71.9369 144.592 72.1406C144.866 72.3443 145.065 72.6176 145.183 72.9553C145.301 73.293 145.36 73.6736 145.36 74.0863V77.0236C145.36 77.1469 145.317 77.2487 145.237 77.3345C145.156 77.4202 145.054 77.4631 144.93 77.4631C144.807 77.4631 144.704 77.4202 144.624 77.3345C144.543 77.2487 144.5 77.1469 144.5 77.0236V74.0863C144.5 73.8129 144.462 73.5717 144.382 73.352C144.301 73.1322 144.172 72.9607 143.989 72.8267C143.807 72.6927 143.559 72.6284 143.242 72.6284C142.946 72.6284 142.677 72.6927 142.435 72.8267C142.193 72.9607 142 73.1322 141.855 73.352C141.71 73.5717 141.64 73.8129 141.64 74.0863V77.0236C141.64 77.1469 141.597 77.2487 141.516 77.3345C141.435 77.4202 141.333 77.4631 141.209 77.4631C141.086 77.4631 140.984 77.4202 140.903 77.3345C140.822 77.2487 140.779 77.1469 140.779 77.0236V69.9591C140.779 69.8358 140.822 69.734 140.903 69.6536C140.984 69.5732 141.086 69.5303 141.209 69.5303C141.338 69.5303 141.441 69.5732 141.521 69.6536C141.602 69.734 141.64 69.8358 141.64 69.9591V73.1644L141.425 73.4002C141.462 73.2126 141.537 73.025 141.661 72.8374C141.785 72.6498 141.935 72.4783 142.124 72.3282C142.312 72.1781 142.516 72.0602 142.747 71.9691C142.978 71.878 143.215 71.8351 143.468 71.8351Z" fill="#2F3061"/>
<path d="M151.867 71.7812C152.357 71.7812 152.738 71.8831 153.018 72.0814C153.298 72.2797 153.496 72.5477 153.615 72.8854C153.733 73.2231 153.792 73.5983 153.792 74.011V77.0233C153.792 77.1466 153.749 77.2485 153.669 77.3342C153.588 77.42 153.486 77.4629 153.362 77.4629C153.238 77.4629 153.136 77.42 153.056 77.3342C152.975 77.2485 152.932 77.1466 152.932 77.0233V74.0325C152.932 73.7591 152.889 73.5179 152.808 73.2981C152.728 73.0784 152.588 72.9069 152.4 72.7729C152.211 72.6389 151.948 72.5745 151.62 72.5745C151.319 72.5745 151.045 72.6389 150.792 72.7729C150.539 72.9069 150.34 73.0784 150.19 73.2981C150.039 73.5179 149.964 73.7591 149.964 74.0325V77.0233C149.964 77.1466 149.921 77.2485 149.84 77.3342C149.76 77.42 149.657 77.4629 149.534 77.4629C149.41 77.4629 149.308 77.42 149.227 77.3342C149.147 77.2485 149.104 77.1466 149.104 77.0233V72.3494C149.104 72.2261 149.147 72.1243 149.227 72.0439C149.308 71.9635 149.41 71.9206 149.534 71.9206C149.663 71.9206 149.765 71.9635 149.846 72.0439C149.926 72.1243 149.964 72.2261 149.964 72.3494V73.1105L149.749 73.3464C149.786 73.1588 149.867 72.9712 149.996 72.7836C150.125 72.596 150.286 72.4245 150.48 72.2744C150.674 72.1243 150.889 72.0064 151.125 71.9153C151.362 71.8241 151.609 71.7812 151.867 71.7812Z" fill="#2F3061"/>
<path d="M158.05 77.4631C157.921 77.4631 157.819 77.4202 157.738 77.3345C157.658 77.2487 157.62 77.1469 157.62 77.0236V69.9591C157.62 69.8358 157.658 69.734 157.738 69.6536C157.819 69.5732 157.921 69.5303 158.05 69.5303C158.174 69.5303 158.276 69.5732 158.357 69.6536C158.437 69.734 158.48 69.8358 158.48 69.9591V77.0236C158.48 77.1469 158.437 77.2487 158.357 77.3345C158.276 77.4202 158.174 77.4631 158.05 77.4631ZM161.621 71.8887C161.733 71.8887 161.836 71.9316 161.916 72.0227C161.997 72.1138 162.04 72.2049 162.04 72.296C162.04 72.4193 161.981 72.5265 161.868 72.6176L158.384 75.6514L158.351 74.6544L161.319 72.0173C161.405 71.9316 161.508 71.8887 161.621 71.8887ZM161.739 77.4524C161.615 77.4524 161.508 77.4041 161.416 77.313L159.126 74.8796L159.771 74.29L162.04 76.7127C162.126 76.8038 162.169 76.911 162.169 77.0343C162.169 77.1629 162.121 77.2648 162.018 77.3398C161.916 77.4149 161.825 77.4524 161.739 77.4524Z" fill="#2F3061"/>
<path d="M167.847 77.5701C167.272 77.5701 166.771 77.4468 166.341 77.2056C165.911 76.9644 165.578 76.6267 165.341 76.2033C165.105 75.7798 164.986 75.2867 164.986 74.7293C164.986 74.1075 165.11 73.5769 165.357 73.1373C165.605 72.6978 165.927 72.3601 166.32 72.1297C166.712 71.8992 167.132 71.7812 167.578 71.7812C167.917 71.7812 168.234 71.8402 168.541 71.9635C168.847 72.0868 169.116 72.2637 169.358 72.4941C169.6 72.7246 169.788 73.0033 169.933 73.3303C170.078 73.6573 170.154 74.0164 170.159 74.4184C170.154 74.5309 170.105 74.6274 170.019 74.7078C169.933 74.7882 169.831 74.8257 169.718 74.8257H165.47L165.277 74.0861H169.417L169.245 74.2361V74.0003C169.223 73.7055 169.127 73.4536 168.96 73.2445C168.793 73.0355 168.584 72.8693 168.342 72.7568C168.1 72.6442 167.841 72.5853 167.578 72.5853C167.363 72.5853 167.148 72.6228 166.938 72.6978C166.728 72.7729 166.535 72.8961 166.368 73.0623C166.202 73.2285 166.067 73.4482 165.965 73.7109C165.863 73.9735 165.814 74.2951 165.814 74.6649C165.814 75.0777 165.9 75.4421 166.067 75.7584C166.234 76.0746 166.47 76.3212 166.771 76.5034C167.073 76.6857 167.422 76.7768 167.815 76.7768C168.073 76.7768 168.293 76.7446 168.481 76.6803C168.67 76.616 168.825 76.5356 168.96 76.4391C169.094 76.3426 169.207 76.2461 169.299 76.1443C169.39 76.08 169.487 76.0478 169.578 76.0478C169.68 76.0478 169.766 76.0853 169.836 76.155C169.906 76.2247 169.944 76.3105 169.944 76.4123C169.944 76.5356 169.885 76.6428 169.772 76.7339C169.562 76.9537 169.288 77.152 168.949 77.3181C168.61 77.4843 168.239 77.5701 167.847 77.5701Z" fill="#2F3061"/>
<path d="M180.806 77.57C180.295 77.57 179.843 77.4521 179.451 77.2216C179.058 76.9911 178.746 76.6909 178.52 76.3211C178.295 75.9513 178.182 75.5653 178.182 75.158C178.182 74.831 178.246 74.5201 178.37 74.2253C178.494 73.9305 178.687 73.6679 178.94 73.4374C179.193 73.2069 179.521 73.0193 179.913 72.8746L180.504 73.4749C179.967 73.5875 179.59 73.7858 179.381 74.0699C179.171 74.354 179.063 74.6702 179.063 75.0293C179.063 75.3134 179.133 75.5921 179.268 75.8548C179.402 76.1174 179.612 76.3318 179.897 76.498C180.182 76.6641 180.531 76.7445 180.956 76.7445C181.381 76.7445 181.747 76.6695 182.064 76.5194C182.381 76.3693 182.645 76.1657 182.86 75.9084C183.075 75.6511 183.252 75.367 183.387 75.0508C183.521 74.7345 183.618 74.4183 183.666 74.0967C183.682 74.0109 183.715 73.9412 183.774 73.893C183.833 73.8448 183.919 73.818 184.043 73.818C184.166 73.818 184.263 73.8662 184.338 73.968C184.414 74.0699 184.44 74.1878 184.419 74.3218C184.36 74.7238 184.241 75.1151 184.064 75.501C183.887 75.8869 183.65 76.2353 183.354 76.5462C183.059 76.8571 182.704 77.1037 182.279 77.2913C181.854 77.4789 181.365 77.57 180.806 77.57ZM184.634 77.4521C184.575 77.4521 184.526 77.4413 184.489 77.4253C184.451 77.4092 184.414 77.3931 184.387 77.377C183.919 76.9965 183.483 76.6427 183.069 76.305C182.655 75.9673 182.257 75.6189 181.87 75.2598C181.483 74.9007 181.091 74.4933 180.698 74.0431C180.445 73.759 180.22 73.4856 180.015 73.2284C179.811 72.9711 179.65 72.7192 179.526 72.4672C179.402 72.2153 179.343 71.958 179.343 71.6954C179.343 71.3524 179.429 71.0415 179.601 70.7628C179.773 70.484 180.021 70.2643 180.338 70.0981C180.655 69.932 181.037 69.8516 181.472 69.8516C181.983 69.8516 182.413 69.9427 182.774 70.1249C183.134 70.3072 183.381 70.5323 183.516 70.8056C183.521 70.811 183.537 70.8432 183.553 70.8968C183.569 70.9504 183.58 71.0093 183.58 71.0736C183.58 71.1594 183.548 71.2398 183.478 71.3148C183.408 71.3899 183.317 71.4274 183.193 71.4274C183.123 71.4274 183.059 71.4113 183.01 71.3792C182.962 71.347 182.919 71.3148 182.892 71.2773C182.747 71.0683 182.564 70.9075 182.343 70.7842C182.123 70.6609 181.833 70.602 181.472 70.602C181.069 70.602 180.768 70.7038 180.558 70.9021C180.349 71.1004 180.246 71.3577 180.246 71.674C180.246 71.8884 180.311 72.1135 180.445 72.3547C180.58 72.5959 180.741 72.8317 180.94 73.0622C181.139 73.2927 181.327 73.5124 181.515 73.7215C181.779 74.0163 182.064 74.3057 182.365 74.5952C182.666 74.8846 182.967 75.158 183.268 75.4206C183.569 75.6833 183.854 75.9191 184.123 76.1389C184.392 76.3586 184.623 76.5409 184.817 76.6909C184.881 76.7499 184.93 76.8035 184.957 76.8625C184.983 76.9214 185 76.9857 185 77.0661C185 77.1358 184.967 77.2216 184.908 77.3127C184.849 77.4038 184.758 77.4521 184.634 77.4521Z" fill="#2F3061"/>
<path d="M193.915 77.463C193.78 77.463 193.673 77.4201 193.592 77.3343C193.511 77.2486 193.474 77.1467 193.474 77.0235V70.3985C193.474 70.2698 193.517 70.1626 193.603 70.0822C193.689 70.0018 193.796 69.959 193.925 69.959C194.06 69.959 194.167 70.0018 194.248 70.0822C194.329 70.1626 194.366 70.2698 194.366 70.3985V77.0235C194.366 77.1467 194.323 77.2486 194.243 77.3343C194.162 77.4201 194.049 77.463 193.915 77.463ZM198.754 69.9482C198.867 69.9482 198.964 69.9965 199.039 70.0876C199.114 70.1787 199.152 70.2752 199.152 70.377C199.152 70.4789 199.109 70.57 199.023 70.6558L194.269 75.1367L194.194 74.1398L198.41 70.109C198.517 70.0018 198.63 69.9482 198.754 69.9482ZM198.786 77.4844C198.657 77.4844 198.549 77.4308 198.463 77.3236L195.603 73.6895L196.259 73.0249L199.173 76.7447C199.238 76.8359 199.27 76.9323 199.27 77.0342C199.27 77.1789 199.216 77.2861 199.114 77.3665C199.012 77.4469 198.899 77.4844 198.786 77.4844Z" fill="#2F3061"/>
<path d="M207.669 74.6757C207.669 75.2331 207.545 75.7316 207.304 76.1657C207.062 76.5999 206.728 76.9429 206.309 77.1949C205.889 77.4468 205.416 77.5701 204.884 77.5701C204.352 77.5701 203.889 77.4468 203.47 77.1949C203.05 76.9429 202.717 76.5999 202.47 76.1657C202.222 75.7316 202.099 75.2331 202.099 74.6757C202.099 74.1182 202.222 73.6197 202.47 73.1856C202.717 72.7514 203.05 72.4084 203.47 72.1564C203.889 71.9045 204.362 71.7812 204.884 71.7812C205.405 71.7812 205.889 71.9045 206.309 72.1564C206.728 72.4084 207.062 72.7514 207.304 73.1856C207.545 73.6197 207.669 74.1182 207.669 74.6757ZM206.809 74.6757C206.809 74.2629 206.723 73.8985 206.556 73.5822C206.389 73.266 206.158 73.0194 205.868 72.8425C205.578 72.6657 205.25 72.5745 204.884 72.5745C204.518 72.5745 204.201 72.6657 203.905 72.8425C203.61 73.0194 203.378 73.266 203.212 73.5822C203.045 73.8985 202.959 74.2629 202.959 74.6757C202.959 75.0884 203.045 75.4421 203.212 75.7584C203.378 76.0746 203.61 76.3212 203.905 76.5034C204.201 76.6857 204.524 76.7768 204.884 76.7768C205.244 76.7768 205.578 76.6857 205.868 76.5034C206.158 76.3212 206.389 76.0746 206.556 75.7584C206.723 75.4421 206.809 75.083 206.809 74.6757Z" fill="#2F3061"/>
<path d="M212.014 77.0236C212.014 77.1469 211.971 77.2487 211.885 77.3345C211.799 77.4202 211.696 77.4631 211.573 77.4631C211.449 77.4631 211.352 77.4202 211.272 77.3345C211.191 77.2487 211.153 77.1469 211.153 77.0236V69.9591C211.153 69.8358 211.196 69.734 211.277 69.6536C211.358 69.5732 211.46 69.5303 211.583 69.5303C211.713 69.5303 211.815 69.5732 211.895 69.6536C211.976 69.734 212.014 69.8358 212.014 69.9591V77.0236Z" fill="#2F3061"/>
<path d="M216.777 77.0236C216.777 77.1469 216.734 77.2487 216.648 77.3345C216.562 77.4202 216.46 77.4631 216.336 77.4631C216.213 77.4631 216.116 77.4202 216.035 77.3345C215.955 77.2487 215.917 77.1469 215.917 77.0236V69.9591C215.917 69.8358 215.96 69.734 216.041 69.6536C216.121 69.5732 216.223 69.5303 216.347 69.5303C216.476 69.5303 216.578 69.5732 216.659 69.6536C216.74 69.734 216.777 69.8358 216.777 69.9591V77.0236Z" fill="#2F3061"/>
<path d="M223.004 77.5701C222.429 77.5701 221.929 77.4468 221.499 77.2056C221.068 76.9644 220.735 76.6267 220.498 76.2033C220.262 75.7798 220.144 75.2867 220.144 74.7293C220.144 74.1075 220.267 73.5769 220.515 73.1373C220.762 72.6978 221.085 72.3601 221.477 72.1297C221.87 71.8992 222.289 71.7812 222.735 71.7812C223.074 71.7812 223.391 71.8402 223.698 71.9635C224.004 72.0868 224.273 72.2637 224.515 72.4941C224.757 72.7246 224.945 73.0033 225.09 73.3303C225.236 73.6573 225.311 74.0164 225.316 74.4184C225.311 74.5309 225.262 74.6274 225.176 74.7078C225.09 74.7882 224.988 74.8257 224.875 74.8257H220.627L220.434 74.0861H224.574L224.402 74.2361V74.0003C224.381 73.7055 224.284 73.4536 224.117 73.2445C223.95 73.0355 223.741 72.8693 223.499 72.7568C223.257 72.6442 222.999 72.5853 222.735 72.5853C222.52 72.5853 222.305 72.6228 222.095 72.6978C221.886 72.7729 221.692 72.8961 221.525 73.0623C221.359 73.2285 221.224 73.4482 221.122 73.7109C221.02 73.9735 220.972 74.2951 220.972 74.6649C220.972 75.0777 221.058 75.4421 221.224 75.7584C221.391 76.0746 221.628 76.3212 221.929 76.5034C222.23 76.6857 222.579 76.7768 222.972 76.7768C223.23 76.7768 223.45 76.7446 223.639 76.6803C223.827 76.616 223.983 76.5356 224.117 76.4391C224.252 76.3426 224.364 76.2461 224.456 76.1443C224.547 76.08 224.644 76.0478 224.735 76.0478C224.838 76.0478 224.924 76.0853 224.994 76.155C225.063 76.2247 225.101 76.3105 225.101 76.4123C225.101 76.5356 225.042 76.6428 224.929 76.7339C224.719 76.9537 224.445 77.152 224.106 77.3181C223.768 77.4843 223.397 77.5701 223.004 77.5701Z" fill="#2F3061"/>
<path d="M230.93 71.7812C231.247 71.7812 231.537 71.8349 231.801 71.9367C232.064 72.0385 232.295 72.1725 232.494 72.3387C232.693 72.5049 232.844 72.6764 232.957 72.8533C233.07 73.0301 233.123 73.2017 233.123 73.3571L232.908 73.2285V72.2958C232.908 72.1725 232.951 72.0707 233.032 71.9903C233.113 71.9099 233.215 71.867 233.338 71.867C233.468 71.867 233.57 71.9099 233.65 71.9903C233.731 72.0707 233.769 72.1725 233.769 72.2958V76.9912C233.769 77.5754 233.645 78.0632 233.398 78.4491C233.15 78.835 232.817 79.1245 232.403 79.3174C231.989 79.5104 231.526 79.6069 231.016 79.6069C230.801 79.6069 230.564 79.5801 230.301 79.5211C230.037 79.4622 229.806 79.3925 229.607 79.3121C229.408 79.2317 229.279 79.1459 229.231 79.0602C229.123 78.9905 229.058 78.9101 229.032 78.819C229.005 78.7278 229.021 78.6474 229.069 78.567C229.139 78.4652 229.225 78.417 229.327 78.417C229.429 78.417 229.558 78.4491 229.714 78.5134C229.784 78.5349 229.892 78.5724 230.026 78.6206C230.161 78.6689 230.322 78.7171 230.499 78.7546C230.677 78.7921 230.854 78.8136 231.026 78.8136C231.634 78.8136 232.102 78.6528 232.424 78.3365C232.747 78.0203 232.908 77.5969 232.908 77.0769V76.08L233.027 76.1336C232.984 76.3319 232.898 76.5195 232.769 76.691C232.639 76.8625 232.478 77.0126 232.29 77.1466C232.102 77.2806 231.887 77.3825 231.655 77.4575C231.424 77.5325 231.188 77.5701 230.951 77.5701C230.451 77.5701 229.999 77.4468 229.602 77.1949C229.204 76.9429 228.886 76.5999 228.655 76.1657C228.424 75.7316 228.306 75.2331 228.306 74.6757C228.306 74.1182 228.424 73.609 228.655 73.1749C228.886 72.7407 229.204 72.3977 229.596 72.1511C229.989 71.9045 230.435 71.7812 230.93 71.7812ZM231.048 72.5745C230.677 72.5745 230.344 72.6657 230.059 72.8479C229.774 73.0301 229.548 73.2767 229.381 73.5929C229.214 73.9092 229.134 74.2683 229.134 74.6757C229.134 75.083 229.214 75.4261 229.381 75.7423C229.548 76.0585 229.774 76.3105 230.059 76.4981C230.344 76.6857 230.677 76.7768 231.048 76.7768C231.419 76.7768 231.752 76.6857 232.037 76.5034C232.322 76.3212 232.548 76.0746 232.715 75.7584C232.881 75.4421 232.962 75.083 232.962 74.6757C232.962 74.2683 232.881 73.8985 232.715 73.5822C232.548 73.266 232.322 73.0194 232.037 72.8425C231.752 72.6657 231.419 72.5745 231.048 72.5745Z" fill="#2F3061"/>
<path d="M239.813 77.5701C239.237 77.5701 238.737 77.4468 238.307 77.2056C237.877 76.9644 237.544 76.6267 237.307 76.2033C237.07 75.7798 236.952 75.2867 236.952 74.7293C236.952 74.1075 237.076 73.5769 237.323 73.1373C237.57 72.6978 237.893 72.3601 238.286 72.1297C238.678 71.8992 239.098 71.7812 239.544 71.7812C239.883 71.7812 240.2 71.8402 240.506 71.9635C240.813 72.0868 241.082 72.2637 241.324 72.4941C241.566 72.7246 241.754 73.0033 241.899 73.3303C242.044 73.6573 242.119 74.0164 242.125 74.4184C242.119 74.5309 242.071 74.6274 241.985 74.7078C241.899 74.7882 241.797 74.8257 241.684 74.8257H237.436L237.243 74.0861H241.383L241.211 74.2361V74.0003C241.189 73.7055 241.092 73.4536 240.926 73.2445C240.759 73.0355 240.549 72.8693 240.307 72.7568C240.065 72.6442 239.807 72.5853 239.544 72.5853C239.329 72.5853 239.114 72.6228 238.904 72.6978C238.694 72.7729 238.501 72.8961 238.334 73.0623C238.167 73.2285 238.033 73.4482 237.931 73.7109C237.829 73.9735 237.78 74.2951 237.78 74.6649C237.78 75.0777 237.866 75.4421 238.033 75.7584C238.2 76.0746 238.436 76.3212 238.737 76.5034C239.038 76.6857 239.388 76.7768 239.78 76.7768C240.039 76.7768 240.259 76.7446 240.447 76.6803C240.635 76.616 240.791 76.5356 240.926 76.4391C241.06 76.3426 241.173 76.2461 241.264 76.1443C241.356 76.08 241.453 76.0478 241.544 76.0478C241.646 76.0478 241.732 76.0853 241.802 76.155C241.872 76.2247 241.91 76.3105 241.91 76.4123C241.91 76.5356 241.851 76.6428 241.738 76.7339C241.528 76.9537 241.254 77.152 240.915 77.3181C240.576 77.4843 240.205 77.5701 239.813 77.5701Z" fill="#2F3061"/>
<path d="M248.275 71.7812C248.765 71.7812 249.147 71.8831 249.426 72.0814C249.706 72.2797 249.905 72.5477 250.023 72.8854C250.141 73.2231 250.2 73.5983 250.2 74.011V77.0233C250.2 77.1466 250.157 77.2485 250.077 77.3342C249.996 77.42 249.894 77.4629 249.77 77.4629C249.647 77.4629 249.544 77.42 249.464 77.3342C249.383 77.2485 249.34 77.1466 249.34 77.0233V74.0325C249.34 73.7591 249.297 73.5179 249.216 73.2981C249.136 73.0784 248.996 72.9069 248.808 72.7729C248.62 72.6389 248.356 72.5745 248.028 72.5745C247.727 72.5745 247.453 72.6389 247.2 72.7729C246.947 72.9069 246.748 73.0784 246.598 73.2981C246.447 73.5179 246.372 73.7591 246.372 74.0325V77.0233C246.372 77.1466 246.329 77.2485 246.248 77.3342C246.168 77.42 246.066 77.4629 245.942 77.4629C245.818 77.4629 245.716 77.42 245.635 77.3342C245.555 77.2485 245.512 77.1466 245.512 77.0233V72.3494C245.512 72.2261 245.555 72.1243 245.635 72.0439C245.716 71.9635 245.818 71.9206 245.942 71.9206C246.071 71.9206 246.173 71.9635 246.254 72.0439C246.334 72.1243 246.372 72.2261 246.372 72.3494V73.1105L246.157 73.3464C246.195 73.1588 246.275 72.9712 246.404 72.7836C246.533 72.596 246.695 72.4245 246.888 72.2744C247.082 72.1243 247.297 72.0064 247.533 71.9153C247.77 71.8241 248.017 71.7812 248.275 71.7812Z" fill="#2F3061"/>
<path d="M25.2505 48.1542C26.5248 38.3615 41.3652 34.2128 45.441 44.2414C47.9197 50.3411 46.6078 62.7495 45.5216 69.3477C45.1775 71.4328 42.8009 79.6175 43.8547 80.9736C45.0431 81.6543 46.597 80.1535 47.5218 79.3977C56.0927 72.3279 64.3571 52.9622 67.0617 42.285C69.6641 32.0313 74.5733 4.5237 55.3883 10.1892C47.9036 12.3976 39.8274 21.8848 32.4502 13.3356C47.0164 17.8058 55.4582 -6.03017 69.9921 1.48457C82.7785 8.09347 79.305 32.8246 76.3208 44.1181C72.487 58.6116 61.7761 77.913 49.3339 86.6498C45.7152 89.1905 39.6661 93.0711 38.8058 85.8994C37.5745 75.5921 44.7312 54.5541 39.7468 46.6534C36.1657 40.9825 28.9337 44.5255 25.2451 48.1596L25.2505 48.1542Z" fill="#A8D2F0"/>
<path d="M42.4997 6.582C39.0638 10.0982 34.2085 10.6556 29.4982 10.5055C23.4115 10.3126 16.3032 7.71296 12.1898 13.9145C4.4739 25.5404 11.8672 51.2095 18.368 62.5245C19.1369 63.8645 21.7554 68.9672 23.3631 65.987C26.1807 60.7557 26.1968 44.5041 36.1173 47.4414C36.8055 47.6451 37.5691 48.0256 38.1283 48.4866C38.3756 48.9797 36.327 48.8082 35.9345 48.9047C28.4121 50.7324 28.8799 67.0858 26.1592 72.9014C22.3523 81.0272 14.8944 69.5836 12.7652 65.9334C4.7535 52.185 -5.64015 19.4943 3.67274 5.20447C10.9101 -5.89612 23.2287 5.35455 31.5737 7.12872C35.2892 7.91664 38.8864 7.79336 42.4997 6.582Z" fill="#2F3061"/>
</g>
<defs>
<clipPath id="clip0_206_7104">
<rect width="285" height="90" fill="white"/>
</clipPath>
</defs>
</svg>
