<svg width="69" height="80" viewBox="0 0 69 80" fill="none" xmlns="http://www.w3.org/2000/svg">
<path d="M35.1407 4.18428C32.5163 11.3198 23.5334 3.95824 18.1927 3.6039C11.2639 3.15182 5.32224 7.73372 4.14496 14.5333C2.09084 26.4279 8.29612 35.2557 11.0554 46.2034C12.9133 53.5833 12.809 60.8471 14.4523 67.8666C15.1881 71.0312 16.58 76.8532 20.7005 76.2851C26.9549 75.4176 24.1772 54.9762 34.2209 54.9701C43.676 54.9701 40.6899 69.4428 44.326 74.1469C48.3668 79.3702 51.6288 73.8597 52.8858 69.8215C53.7259 67.1213 56.9818 54.7746 57.0247 52.6486C57.086 49.6429 54.8725 46.8509 55.4427 41.8231C55.6941 39.5749 59.3854 30.9365 61.0226 29.9285C61.4273 29.678 62.3532 30.6371 63.0399 29.8918C65.2841 27.4726 65.5539 18.7486 65.1308 15.5352C63.9106 6.29806 54.3513 2.18657 45.9018 4.82574C38.9485 6.99451 36.4283 15.2236 27.1388 12.4622C26.5073 12.2729 23.9565 10.7333 25.3238 9.9758C27.7827 9.33433 30.0391 10.0002 32.5838 9.26713C35.8029 8.34464 39.6414 3.55503 43.5902 1.90554C59.9986 -4.9612 70.864 8.56458 68.7117 24.4913C68.3438 27.2099 65.7747 31.1992 65.7563 32.5799C65.7317 34.6875 68.2948 37.5772 68.724 40.0697C69.3372 43.6497 69.1103 48.1828 66.3572 50.8586C64.9775 52.1965 61.2617 53.3389 60.6179 54.3042C58.9562 56.7784 57.1228 69.2045 55.3937 73.5359C51.5062 83.2923 41.7568 81.313 39.1202 72.0086C37.8693 67.5978 39.3164 59.9246 34.319 58.6906C28.3284 59.2465 30.4561 77.7513 22.3132 79.6757C15.0594 81.3863 12.809 76.2423 11.2761 70.4264C9.44888 63.4802 9.45501 55.8926 7.87916 48.7631C4.90529 35.3229 -7.30906 15.3458 6.31558 3.8666C16.5126 -4.72294 24.4164 3.58557 35.1407 4.18428ZM62.7272 34.7242C61.366 33.7101 55.9885 48.9464 61.2188 49.429C67.1604 49.9728 64.8488 37.6505 62.7272 34.7242Z" fill="#A8D2F0"/>
<path d="M44.8961 46.8938C41.5973 46.8449 38.8074 44.725 35.4349 44.499C30.4621 44.1691 27.5496 46.8755 22.8772 46.9427C22.1721 42.2814 31.9092 40.0149 35.4227 40.2165C38.3904 40.3875 47.2323 42.8373 44.89 46.8999L44.8961 46.8938Z" fill="#A8D2F0"/>
<path d="M43.2593 26.9348C45.2889 24.9004 48.8392 26.947 48.3854 29.8611C47.3369 36.5629 39.6171 30.582 43.2593 26.9348Z" fill="#A8D2F0"/>
<path d="M24.5701 26.935L25.03 31.6757C18.2729 36.4287 17.7455 23.4344 24.5701 26.935Z" fill="#A8D2F0"/>
</svg>
