<svg width="87" height="83" viewBox="0 0 87 83" fill="none" xmlns="http://www.w3.org/2000/svg">
<path d="M61.0066 1.71467C64.0728 -0.027703 67.2163 4.2633 68.1129 6.71792C72.018 17.3823 61.7061 40.666 49.9838 43.8875C45.8564 51.6469 42.6172 60.3357 38.3453 67.9632C35.2224 73.5349 31.0997 81.5784 23.8271 81.1389C15.6997 80.6471 20.2518 73.2137 22.335 69.0674C32.1815 49.4686 45.5155 25.3362 57.2014 6.84692C57.9168 5.71569 60.073 2.24576 61.0113 1.71306L61.0066 1.71467ZM62.8543 5.16013L44.7802 37.1289L44.7076 38.1052C47.5803 40.8632 50.36 40.9507 53.7096 38.736C57.2364 36.4028 64.0348 21.4507 64.8109 17.102C65.5871 12.7534 65.2615 8.90048 62.8511 5.15085L62.8543 5.16013ZM46.1601 42.7062C44.6764 43.0743 42.767 40.7417 41.7633 41.7908C36.7209 52.372 29.5916 62.3297 24.4125 72.7712C23.6717 74.2646 22.5451 75.9644 22.9982 77.6786C24.7168 77.6137 26.3812 77.287 27.8946 76.3888C32.5826 73.5964 42.1181 52.0783 45.061 46.122C45.6636 44.905 47.1825 44.083 46.1601 42.7062Z" fill="#A8D2F0"/>
</svg>
