<svg width="78" height="80" viewBox="0 0 78 80" fill="none" xmlns="http://www.w3.org/2000/svg">
<path d="M39.1051 7.03945C33.4575 13.7554 27.0712 7.26535 21.0634 7.01502C13.859 6.71586 6.56909 14.079 5.6838 20.9294C4.53597 29.8311 15.251 50.0157 18.7983 59.3937C20.0438 62.6785 22.3212 74.4498 25.9966 74.8222C30.2216 75.2557 31.5892 67.2331 31.7968 64.1438C32.4745 53.8927 25.2213 49.6677 26.3508 39.7647C27.6207 28.5917 42.7622 21.1064 51.9143 27.4866C49.8079 30.808 46.4499 29.2755 43.1408 29.6907C37.6092 30.3867 31.9983 34.5689 31.2229 40.3569C30.2094 47.9582 35.3563 51.1514 36.3881 57.6781C37.4199 64.2048 36.4431 76.3791 29.7637 79.1937C17.8398 84.2185 14.9702 64.4368 12.0884 56.9454C6.52635 42.4877 -7.36356 24.5255 4.93282 9.79911C9.0479 4.87201 17.0766 1.56285 23.4751 2.22224C28.7746 2.76563 33.7262 6.83186 39.1051 7.04555V7.03945Z" fill="#A8D2F0"/>
<path d="M53.307 72.8066C55.7797 75.1328 59.0522 71.6099 60.3771 69.5158C63.7473 64.1979 64.0281 54.6917 65.5423 48.4275C68.363 36.705 79.768 14.121 64.3334 6.538C51.5547 0.261588 47.9708 15.0429 36.9626 16.1907C36.1262 16.2762 27.5419 16.6792 29.3369 14.3774C32.408 12.9731 36.5047 12.3931 39.3132 10.6042C42.9094 8.31468 45.8583 4.24845 50.297 2.05049C62.6117 -4.04276 76.5016 4.10802 77.5639 17.7354C78.3759 28.1879 73.3573 37.859 70.9029 47.6888C68.7415 56.3524 67.6242 77.4223 55.8957 78.4786C44.5151 79.5043 46.2124 62.4884 44.3319 55.2412C42.7811 49.2762 35.6927 45.1 39.9787 37.5293C41.9813 34.0003 49.9428 32.6022 48.6119 38.2253L44.2831 40.002C42.6224 45.3626 47.4823 48.6229 49.0514 53.5683C50.2603 57.3659 51.3349 70.9689 53.3008 72.8188L53.307 72.8066Z" fill="#A8D2F0"/>
</svg>
