<svg width="66" height="81" viewBox="0 0 66 81" fill="none" xmlns="http://www.w3.org/2000/svg">
<path d="M31.9061 4.11827C27.6633 9.11019 23.8607 5.25046 18.9889 4.74726C6.72922 3.47784 3.93878 12.8384 5.09956 23.2111C5.47123 26.539 7.74705 33.8811 11.3094 34.7103C15.701 35.7395 26.6112 35.1334 31.6545 35.0133C36.4521 34.899 41.6613 34.7103 46.4931 34.4129C48.0713 34.3157 52.4857 33.9612 53.6808 33.5952C56.3626 32.7604 59.0787 28.0944 59.9078 25.5269C62.0635 18.8539 62.0693 10.1166 54.9788 6.50845C42.599 0.207068 37.3384 14.2336 25.6334 10.9743C24.4383 9.67057 29.4016 8.54982 30.0249 8.22388C39.5741 3.23196 47.9398 -4.53898 59.2159 3.41494C67.999 9.61339 66.964 26.5162 61.3373 34.3843C57.4833 39.7765 51.8395 38.3527 46.7904 41.0116C46.6532 41.6749 48.0827 42.5212 47.9741 43.825C47.8254 45.5861 44.9149 45.7577 45.6239 50.7553C45.8927 52.6251 47.3794 53.1798 47.3794 54.1405C47.3794 55.1011 43.8399 59.3668 43.9657 62.7863C44.0171 64.17 45.521 64.0671 45.9613 64.719C47.2364 66.6117 44.2459 67.3436 43.4339 68.5158C42.4618 69.9225 41.9129 73.0675 40.8093 75.0402C36.9152 82.022 29.9677 83.2457 24.8214 76.6985C24.0952 75.7778 23.3232 73.462 22.6256 72.8959C21.4191 71.9181 18.9603 72.7358 19.3377 69.6023C19.555 67.7782 21.7965 67.864 20.9216 63.4153C20.4127 60.8364 17.7423 62.4603 17.6051 59.3154C17.5022 56.9481 19.2519 56.7365 19.3434 56.3305C19.5493 55.3984 19.4978 50.4122 19.0918 49.8404C18.4914 48.9941 15.4093 49.4973 16.5701 46.2151C16.9475 45.1516 19.2805 45.8149 17.9482 41.8293C17.0905 39.2619 11.481 40.4341 8.2674 38.9417C-0.0753489 35.0648 -1.78507 16.4294 1.70871 9.07588C7.73561 -3.60692 21.4191 -0.404772 31.9061 4.11827ZM41.6327 40.1482C35.8231 38.4957 29.8247 40.7086 23.9065 40.1368V44.7113L41.3811 41.8865L41.6327 40.1482ZM41.0666 46.9985L24.4497 48.9827L24.0552 49.5488L24.484 56.1475L40.4719 53.2713L41.0666 46.9985ZM39.3454 64.7247L39.9115 57.863L25.5819 61.0708L26.1937 66.4459L39.3454 64.7304V64.7247ZM37.63 69.8767L27.3431 71.3006C30.4537 78.574 36.0403 76.5384 37.63 69.8767Z" fill="#A8D2F0"/>
</svg>
