<svg width="69" height="79" viewBox="0 0 69 79" fill="none" xmlns="http://www.w3.org/2000/svg">
<path d="M34.5583 4.06813C34.8142 5.43089 34.4631 5.01433 33.7966 5.38923C28.5241 8.37065 23.6502 3.69917 18.1695 3.46114C10.7963 3.13384 5.94031 7.7696 4.36332 14.631C1.63779 26.5031 8.07669 36.5006 11.1831 47.3789C12.528 52.098 15.3547 73.0512 18.4908 74.5865C25.2808 77.9071 25.989 65.6185 27.3993 62.0598C29.2263 57.4538 33.5942 54.3594 38.111 57.9418C43.1871 61.9706 40.8008 77.3716 48.8881 74.6163C53.6667 72.9857 56.5172 53.6809 57.9454 48.5632C61.3374 36.3757 69.1391 23.0278 62.8609 10.5844C59.5283 3.98482 53.9642 2.42568 47.0552 4.34782C42.1755 5.70463 35.921 10.995 31.2436 11.1438C29.3988 11.2033 24.3287 10.4178 25.0547 7.63273C34.231 9.6739 40.2355 1.54494 48.6203 0.551136C57.5645 -0.508128 64.3367 2.76488 67.3241 11.4711C72.0074 25.1284 65.753 34.3821 62.242 46.9029C60.415 53.437 59.3022 60.6316 57.3503 67.0051C55.3984 73.3785 50.7983 82.6798 43.1931 77.2585C37.2957 73.0512 39.2595 62.9049 35.3676 60.6554C30.7795 58.0013 29.6488 69.0998 28.4824 72.0633C24.7571 81.5074 16.0926 81.317 12.7125 71.4385C10.3856 64.6485 9.97503 56.341 8.09454 49.2773C4.58945 36.1971 -6.35429 17.7374 5.08338 5.23451C13.8193 -4.31672 24.2989 1.65801 34.5523 4.06218L34.5583 4.06813Z" fill="#A8D2F0"/>
<path d="M45.5681 39.7799C47.5973 39.887 45.8418 43.5111 44.9849 44.5406C40.1944 50.3011 28.9055 50.5272 24.4423 44.2252C23.2283 42.5113 22.5023 39.7323 25.2338 40.4464C26.0253 40.6547 28.0069 43.2314 29.9767 44.0467C33.2973 45.4273 37.5224 45.7189 40.7181 43.8384C41.8726 43.16 44.6278 39.7263 45.574 39.7739L45.5681 39.7799Z" fill="#A8D2F0"/>
<path d="M40.5093 30.2398C38.7895 22.2477 51.1019 21.5038 51.8041 28.2105C52.423 34.1079 48.6323 28.4188 47.8825 27.9308C44.0798 25.479 43.8656 30.4064 40.5093 30.2398Z" fill="#A8D2F0"/>
<path d="M28.0063 29.6515C24.8107 30.4727 24.2334 25.712 21.1211 27.8245C20.6748 28.128 16.8364 33.8528 16.9733 29.342C17.1935 22.0164 29.3096 21.4452 28.0063 29.6515Z" fill="#A8D2F0"/>
</svg>
