<svg width="72" height="77" viewBox="0 0 72 77" fill="none" xmlns="http://www.w3.org/2000/svg">
<path d="M37.547 4.70185C37.7697 5.92387 36.7247 6.27221 35.8681 6.72904C31.317 9.13312 26.2633 5.39852 21.5693 4.41062C13.7803 2.76031 8.09274 3.87384 5.12905 11.9712C0.709193 24.0601 8.81225 35.8692 11.6903 47.41C12.9295 52.3666 14.0373 67.3564 18.7141 69.5092C24.5159 72.1817 25.0412 59.8415 25.8235 56.6494C27.451 49.9796 31.5968 39.5753 40.3794 44.983C47.82 49.5628 43.3773 62.4626 47.5516 68.0702C49.6131 70.8397 52.868 69.3836 54.347 66.8996C57.0081 62.434 58.8754 48.8832 60.6741 42.9616C63.6949 33.0312 70.5874 21.9701 66.0134 11.3545C62.5928 3.41701 54.3699 1.99512 46.8664 5.1701C42.812 6.88322 39.5171 11.7199 35.417 12.5651C32.9273 13.079 27.0855 13.1361 26.6972 9.84121C28.6388 9.68132 30.7859 10.0582 32.6932 9.84121C37.6841 9.27017 38.8718 5.7183 42.7321 3.31993C52.5539 -2.78449 65.6536 -0.608828 69.7937 10.9947C74.1792 23.2778 67.1726 34.0533 63.6607 45.3771C61.3594 52.7892 60.2801 60.5325 57.562 67.8246C57.6933 70.48 65.5908 72.8555 67.7151 73.8891L67.8121 76.6529C65.962 78.5888 56.7511 71.8048 55.432 71.5992C54.6097 71.4736 53.8274 72.7128 52.9994 72.9697C38.7976 77.3667 44.2053 51.5043 38.9232 48.1523C28.793 41.7338 29.2612 67.2251 24.7157 71.5193C20.3244 75.6707 16.0645 71.1767 14.5455 71.565C13.3806 71.8676 9.37187 75.488 7.12769 76.1961C5.60872 76.6758 3.63292 77.361 3.29601 75.231L12.9523 68.31C9.9886 60.6981 9.28051 52.5093 7.00206 44.669C3.38166 32.2374 -3.40801 23.4948 2.03972 10.0239C5.42028 1.66962 11.8159 -0.831534 20.5586 0.281995C26.2632 1.00722 31.7738 4.72469 37.547 4.70756V4.70185Z" fill="#A8D2F0"/>
</svg>
