<svg width="77" height="81" viewBox="0 0 77 81" fill="none" xmlns="http://www.w3.org/2000/svg">
<path d="M37.3766 4.83383C42.5832 10.2699 23.9469 4.82071 22.8387 4.76825C14.7796 4.37481 7.66482 8.6896 5.97956 16.8471C3.16642 30.48 10.6681 37.2407 14.2944 49.2736C16.9567 58.0999 16.1698 69.4902 22.9502 75.1165C28.4453 76.3493 27.547 53.6146 38.0717 52.9458C48.7669 52.2638 46.6816 65.4967 49.9603 71.5296C55.6522 82.0018 58.8456 65.9164 60.826 61.3786C56.9964 62.8934 42.6422 45.3916 42.8979 44.1391C43.2061 42.6375 45.1734 41.7457 47.0488 42.7162C51.2915 44.9063 57.0227 54.8343 62.1834 57.2212C61.9145 42.7621 79.0098 23.8438 68.931 9.80437C58.5571 -4.63512 43.1275 16.2307 31.8618 15.8307C41.7832 2.89938 67.5933 -10.1171 75.2851 11.7126C80.3409 26.0603 72.99 33.4243 69.0425 45.4375C66.1572 54.231 65.4883 78.3821 54.6358 79.3919C38.9504 80.8477 45.5865 55.6212 38.1176 57.2409C31.6454 58.6376 34.4388 81.9887 21.7043 80.3034C12.1567 79.2936 11.8878 58.618 9.7173 51.0835C5.78939 37.4046 -5.87629 23.6734 3.65822 9.01747C11.7829 -3.46789 25.7043 -0.149827 37.3766 4.83383Z" fill="#A8D2F0"/>
<path d="M56.6813 15.8496C56.1108 20.9906 49.4616 22.0005 51.1796 28.2497C57.1141 29.4038 58.2289 21.5677 63.5797 21.371C62.924 33.876 52.5173 31.5481 47.632 35.0564C46.7337 35.7055 33.9467 52.9188 31.8876 50.3221C31.7827 42.9712 40.832 38.0334 43.5074 32.3022C46.3074 26.2891 46.3205 16.348 56.6944 15.8496H56.6813Z" fill="#A8D2F0"/>
<path d="M31.3831 25.9817C33.7437 28.4408 35.5798 32.3031 38.7339 34.4605L35.3306 36.5261L12.5566 13.1029C18.3862 12.7882 27.1994 21.621 31.3831 25.9817Z" fill="#A8D2F0"/>
</svg>
