<svg width="77" height="80" viewBox="0 0 77 80" fill="none" xmlns="http://www.w3.org/2000/svg">
<path d="M40.0557 5.07714C40.1196 7.18748 36.7012 7.51304 35.1316 7.42584C27.9285 7.01307 21.1499 -0.352753 12.7202 6.5131C2.04059 15.2161 12.4527 35.8717 15.7897 46.4874C17.2141 51.022 19.5918 66.3175 24.3357 67.614C27.6785 68.5267 29.2773 64.5502 29.8993 62.062C31.2423 56.7135 30.3295 40.4587 39.1081 41.1272C44.9972 41.5807 47.1715 49.586 48.0436 54.3357C48.5726 57.1902 48.34 66.7943 51.5085 67.7535C53.5839 68.4046 54.8513 67.0094 55.9965 65.4746C58.7406 51.8184 66.5192 36.5171 68.9841 23.233C71.7514 8.35019 62.5601 -1.1434 47.9738 6.29218C42.1369 9.26293 39.9568 14.3847 32.3527 11.2919C31.7597 11.0477 30.2714 11.0419 30.7597 10.0129C33.3061 8.35601 35.8583 9.60593 38.8988 8.26299C40.8289 7.41421 43.0613 5.16435 45.1077 4.00744C52.2584 -0.00393699 60.5253 -2.35263 67.3854 3.61212C77.6231 12.5127 71.7049 29.1396 67.3737 39.6564C67.3679 40.2261 76.1639 38.7669 76.6813 44.3654C76.0476 49.5686 75.5186 54.8008 74.9431 60.0156C74.228 66.521 75.4314 74.7879 67.6993 77.7703C64.9553 78.8284 59.1126 79.3051 56.0372 79.4795C44.1019 80.1655 25.3357 80.3748 13.6736 78.8342C4.30789 77.5959 3.70328 73.5322 2.3429 65.1664C1.54062 60.2423 0.00583149 50.6383 1.78957e-05 45.9932C-0.0116093 40.3889 5.64502 40.8656 9.8308 40.5342C8.48205 34.68 5.58107 29.314 4.67415 23.3086C3.32539 14.3091 5.7671 4.12371 15.3188 0.972747C24.2776 -1.98056 31.5039 3.40283 40.0557 5.07714ZM4.08697 45.2665C3.99977 47.2431 3.8835 49.3011 4.01721 51.2894C4.26138 54.8357 6.31939 70.2359 7.80767 72.4974C9.03434 74.3635 11.5574 75.1019 13.6678 75.3577C16.1211 75.6542 19.7779 75.9042 22.301 76.0262C31.376 76.4623 58.7406 77.1599 66.211 74.5438C69.1934 73.4973 70.2922 71.7474 70.8212 68.6895C71.6467 63.8875 72.4548 55.0799 72.6351 50.1616C72.6816 48.8593 72.8618 46.0339 72.5188 44.9991C71.8967 43.1446 66.7517 42.7899 65.5832 44.2666C64.81 45.2433 62.7113 56.2542 61.9846 58.6901C60.5602 63.4514 58.8394 71.4044 52.5549 71.4102C41.8928 71.4161 46.8808 52.5568 42.2997 46.7257C40.0324 43.8364 37.1082 45.063 35.6839 48.0919C32.3527 55.1903 36.3524 73.3927 23.0335 70.637C22.2951 70.4859 20.9115 69.7708 20.3127 69.2941C15.1967 65.213 12.7085 44.8944 11.4935 44.1096L4.08697 45.2723V45.2665Z" fill="#A8D2F0"/>
</svg>
