<svg width="96" height="78" viewBox="0 0 96 78" fill="none" xmlns="http://www.w3.org/2000/svg">
<path d="M40.7776 5.80686C34.7403 13.048 26.6341 4.79055 19.2357 4.05253C11.9885 3.3266 6.56214 7.26476 4.74732 14.2337C1.74681 25.7518 9.71994 37.415 12.6479 48.1467C14.2449 54.0025 15.0313 68.6119 19.2841 72.3625C27.2572 79.3859 27.4266 60.4089 28.3521 56.5977C29.7737 50.7782 34.2745 42.8474 41.3463 47.2695C47.9462 51.4013 44.8186 65.7142 49.8517 72.0358C51.1887 73.7176 53.185 75.2239 55.1329 73.3909C56.5908 72.0177 58.1031 59.3079 59.0892 55.8778C62.5858 43.7004 76.3482 19.3636 67.3829 7.9181C64.2191 3.88314 58.5629 3.59882 53.9411 4.75426C45.4054 6.8776 41.8726 16.5204 32.0544 15.4315C30.7719 15.2923 23.8695 13.048 25.642 11.2453C28.0255 10.8884 30.2516 11.8563 32.5867 11.8926C40.2271 12.0015 43.4454 4.3066 50.8862 1.6993C66.8566 -3.8964 75.4892 7.06513 73.9647 22.358C73.4989 27.0524 71.067 31.3656 70.7101 36.0418C71.8232 34.4266 74.3882 34.7714 75.5376 33.61C75.7735 33.374 78.5502 28.4317 78.8103 27.8086C80.8731 22.8541 79.3729 18.3473 80.8671 13.532C82.3613 8.71662 90.1287 2.63696 95.5127 3.37499C96.6621 6.07908 91.2902 6.69007 88.9612 8.31736C82.325 12.9452 85.0835 18.3715 83.4381 25.1771C82.567 28.7765 79.9113 31.9766 79.1612 34.8138C78.4897 37.3424 78.8042 39.617 77.7819 42.5086C73.7772 53.8513 64.6123 65.4057 58.0366 75.3933C57.5647 75.9196 55.8528 77.2504 55.2599 77.4561C42.665 81.7391 43.8991 59.5256 41.1769 52.8652C39.9005 49.7437 37.1359 48.6428 34.7161 51.4678C29.1688 57.9528 33.5304 76.2825 23.3674 77.6678C11.2081 79.3314 10.5185 54.6982 8.06845 46.6706C4.06374 33.5253 -7.412 14.887 7.22153 3.39919C18.0016 -5.06394 29.5197 4.8208 40.7837 5.80686H40.7776ZM74.6543 38.4737C70.8372 39.5202 68.4416 44.4324 66.6933 47.7474C64.2131 52.472 61.515 58.5517 61.3517 63.8752C63.2814 61.7942 64.8724 58.8905 66.288 56.4162C67.5281 54.2445 75.7251 39.6654 74.6483 38.4676L74.6543 38.4737Z" fill="#A8D2F0"/>
<path d="M50.9109 17.9901C54.6675 17.4698 55.2846 25.1345 56.2162 27.5724C57.9826 32.2002 62.5257 35.6241 59.2046 40.869C56.803 44.6559 51.3888 44.8918 47.8378 42.6052C45.5632 41.1412 45.0792 38.4795 43.4277 37.3361C39.9433 34.9285 29.4959 35.7209 32.8776 27.2336C34.7589 22.503 39.8162 24.7533 43.2342 23.6826C45.6418 22.9264 47.7833 18.4196 50.9109 17.9901ZM36.6403 27.6692C36.4407 27.7962 35.9507 29.3509 35.9749 29.7199C36.1745 32.7386 43.579 32.5389 45.9382 34.2207C48.5213 36.0597 49.0476 42.7927 54.111 41.244C55.1575 40.9234 56.8574 39.2901 57.2809 38.2859C58.031 36.5073 53.9356 32.7749 53.2822 30.5003C52.4111 27.4635 53.6694 24.0274 51.3646 21.5471C48.5818 22.999 47.9708 25.9209 44.7344 27.0098C42.3812 27.7962 37.2573 27.2759 36.6342 27.6752L36.6403 27.6692Z" fill="#A8D2F0"/>
</svg>
