<svg width="83" height="88" viewBox="0 0 83 88" fill="none" xmlns="http://www.w3.org/2000/svg">
<path d="M70.2538 0.20783C70.6388 0.466657 72.2297 6.25554 74.3445 8.43347C76.9454 11.1164 81.0424 11.5331 82.9237 14.3991C82.9237 16.091 77.4441 18.4709 75.948 20.0933C65.1593 31.7721 62.3059 63.3616 57.4576 78.6197C55.5385 84.6548 51.9844 90.8414 44.794 86.5992C37.6037 82.3569 39.5796 66.417 37.6605 59.012C35.4068 50.3255 32.4587 55.3064 30.9437 60.9501C29.3402 66.9473 29.8515 73.4369 28.4248 79.2636C27.0865 84.7053 22.1625 90.6899 16.3862 86.5992C10.61 82.5084 9.87136 61.7202 8.09114 54.492C4.87159 41.4181 -8.79573 18.9002 8.82343 9.15945C21.0451 2.39839 29.1129 12.2149 38.5128 12.0192C40.8296 11.9687 47.073 8.04839 51.6561 7.78956C54.8125 7.6128 60.6456 9.68973 62.1291 9.36146C65.6138 8.59129 67.5897 -1.59133 70.2475 0.214143L70.2538 0.20783ZM69.6225 7.15196L68.322 7.54336C67.0847 10.1506 64.8247 13.1744 62.066 14.1024V15.0304C65.5886 17.0821 67.3751 20.3584 68.3852 24.1903L69.6793 23.7989C71.0744 20.3332 73.6122 17.2083 76.5792 15.0367V14.1024C73.3913 13.105 70.6199 10.3147 69.6288 7.15196H69.6225ZM56.3718 12.2022C53.1712 11.35 49.3014 11.9939 46.1324 13.004C39.1756 15.2261 33.8034 24.4365 26.0828 18.8244C28.1976 17.2462 30.83 18.0164 33.2542 16.5392C34.0433 16.0594 34.6619 15.7564 33.6582 15.0304C25.6093 12.7073 16.7902 7.66331 9.07594 13.8246C-3.03842 23.5022 10.0102 44.5872 12.6301 56.2596C14.2335 63.4058 14.082 71.6377 16.2852 78.4872C17.2448 81.4731 19.0502 86.2204 22.617 82.9188C25.7861 79.9833 25.7356 66.2529 26.8656 61.2846C27.9956 56.3164 31.2972 46.6957 38.0456 51.0515C44.7435 55.3758 40.8611 79.1563 46.6563 82.8367C52.0412 86.2583 53.2533 79.3962 54.3012 75.457C56.4602 67.3513 57.2745 58.6585 59.5724 50.4265C61.8892 42.1252 69.6288 28.42 63.2276 20.813C60.9739 18.1363 57.4197 17.4608 55.1471 14.9673L56.3781 12.2022H56.3718Z" fill="#A8D2F0"/>
</svg>
